{"accessors" : [{"bufferView" : 0, "byteOffset" : 0, "componentType" : 5123, "count" : 10752, "type" : "SCALAR", "max" : [10751], "min" : [0]}, {"bufferView" : 1, "byteOffset" : 0, "componentType" : 5126, "count" : 10752, "type" : "VEC3", "max" : [1.0547404289245605, 0.9641352891921997, 1.0009591579437256], "min" : [-1.2461788654327393, -0.9641352891921997, -0.9920206665992737], "name" : "POSITION"}, {"bufferView" : 1, "byteOffset" : 12, "componentType" : 5126, "count" : 10752, "type" : "VEC3", "max" : [0.9999895095825195, 0.999907910823822, 0.9999805688858032], "min" : [-0.9999800324440002, -0.999907910823822, -0.9999711513519287], "name" : "NORMAL"}, {"bufferView" : 1, "byteOffset" : 24, "componentType" : 5126, "count" : 10752, "type" : "VEC2", "max" : [0.5226715803146362, 0.9998977780342102], "min" : [0.00010221112461294979, 0.00010222196578979492], "name" : "TEXCOORD_0"}, {"bufferView" : 0, "byteOffset" : 21504, "componentType" : 5123, "count" : 2304, "type" : "SCALAR", "max" : [2303], "min" : [0]}, {"bufferView" : 2, "byteOffset" : 0, "componentType" : 5126, "count" : 2304, "type" : "VEC3", "max" : [0.8142846822738647, 0.42770808935165405, -0.5714465379714966], "min" : [-0.7105361223220825, -0.46500423550605774, -1.1533763408660889], "name" : "POSITION"}, {"bufferView" : 2, "byteOffset" : 12, "componentType" : 5126, "count" : 2304, "type" : "VEC3", "max" : [0.9999520778656006, 1.0000009536743164, 0.9999759793281555], "min" : [-0.9990534782409668, -1.0000009536743164, -0.9999313950538635], "name" : "NORMAL"}, {"bufferView" : 2, "byteOffset" : 24, "componentType" : 5126, "count" : 2304, "type" : "VEC2", "max" : [0.8750001192092896, 1], "min" : [0.1250000149011612, -1.1920928955078125E-07], "name" : "TEXCOORD_0"}, {"bufferView" : 0, "byteOffset" : 26112, "componentType" : 5125, "count" : 110592, "type" : "SCALAR", "max" : [110591], "min" : [0]}, {"bufferView" : 3, "byteOffset" : 0, "componentType" : 5126, "count" : 110592, "type" : "VEC3", "max" : [2.480022668838501, 1.1222137212753296, 1.7109590768814087], "min" : [-1.9954105615615845, -1.1264173984527588, -3.2293388843536377], "name" : "POSITION"}, {"bufferView" : 3, "byteOffset" : 12, "componentType" : 5126, "count" : 110592, "type" : "VEC3", "max" : [1.000002145767212, 0.9999284744262695, 0.9998734593391418], "min" : [-0.9998892545700073, -0.9999284744262695, -0.9998195171356201], "name" : "NORMAL"}, {"bufferView" : 3, "byteOffset" : 24, "componentType" : 5126, "count" : 110592, "type" : "VEC2", "max" : [0.8750001192092896, 1], "min" : [0.125, -1.1920928955078125E-07], "name" : "TEXCOORD_0"}, {"bufferView" : 0, "byteOffset" : 468480, "componentType" : 5123, "count" : 4032, "type" : "SCALAR", "max" : [4031], "min" : [0]}, {"bufferView" : 4, "byteOffset" : 0, "componentType" : 5126, "count" : 4032, "type" : "VEC3", "max" : [3.52370023727417, 5.708102226257324, 7.74526834487915], "min" : [-4.925044536590576, -0.9999998211860657, -2.259479284286499], "name" : "POSITION"}, {"bufferView" : 4, "byteOffset" : 12, "componentType" : 5126, "count" : 4032, "type" : "VEC3", "max" : [0.9961246252059937, 0.9983143210411072, 0.987790048122406], "min" : [-1.0000044107437134, -0.9988601207733154, -0.9993937611579895], "name" : "NORMAL"}, {"bufferView" : 4, "byteOffset" : 24, "componentType" : 5126, "count" : 4032, "type" : "VEC2", "max" : [0, 1], "min" : [0, 1], "name" : "TEXCOORD_0"}, {"bufferView" : 0, "byteOffset" : 476544, "componentType" : 5123, "count" : 2304, "type" : "SCALAR", "max" : [2303], "min" : [0]}, {"bufferView" : 5, "byteOffset" : 0, "componentType" : 5126, "count" : 2304, "type" : "VEC3", "max" : [0.5417184829711914, 5.579407691955566, 7.686161041259766], "min" : [-10.383447647094727, -5.522008895874023, -3.2376041412353516], "name" : "POSITION"}, {"bufferView" : 5, "byteOffset" : 12, "componentType" : 5126, "count" : 2304, "type" : "VEC3", "max" : [0.9983007311820984, 0.9906449317932129, 0.9976282119750977], "min" : [-0.99810791015625, -0.99525386095047, -0.9987770318984985], "name" : "NORMAL"}, {"bufferView" : 5, "byteOffset" : 24, "componentType" : 5126, "count" : 2304, "type" : "VEC2", "max" : [0.999899685382843, 0.999899685382843], "min" : [0.0001002953722490929, 0.48768097162246704], "name" : "TEXCOORD_0"}, {"bufferView" : 0, "byteOffset" : 481152, "componentType" : 5123, "count" : 5184, "type" : "SCALAR", "max" : [5183], "min" : [0]}, {"bufferView" : 6, "byteOffset" : 0, "componentType" : 5126, "count" : 5184, "type" : "VEC3", "max" : [5.949700355529785, 5.2377166748046875, 5.482895851135254], "min" : [-1.9704813957214355, -0.32492637634277344, -0.8413326740264893], "name" : "POSITION"}, {"bufferView" : 6, "byteOffset" : 12, "componentType" : 5126, "count" : 5184, "type" : "VEC3", "max" : [0.9953562021255493, 0.9990248084068298, 0.9992881417274475], "min" : [-0.9724294543266296, -0.9992237091064453, -0.9981390833854675], "name" : "NORMAL"}, {"bufferView" : 6, "byteOffset" : 24, "componentType" : 5126, "count" : 5184, "type" : "VEC2", "max" : [0, 1], "min" : [0, 1], "name" : "TEXCOORD_0"}, {"bufferView" : 0, "byteOffset" : 491520, "componentType" : 5123, "count" : 18432, "type" : "SCALAR", "max" : [18431], "min" : [0]}, {"bufferView" : 7, "byteOffset" : 0, "componentType" : 5126, "count" : 18432, "type" : "VEC3", "max" : [0.9797428846359253, 0.9797427654266357, 0.9512730836868286], "min" : [-0.9797424674034119, -0.9797430038452148, -0.9512731432914734], "name" : "POSITION"}, {"bufferView" : 7, "byteOffset" : 12, "componentType" : 5126, "count" : 18432, "type" : "VEC3", "max" : [0.9998437166213989, 0.9998437166213989, 1.0000044107437134], "min" : [-0.9998437166213989, -0.9998437166213989, -1.0000044107437134], "name" : "NORMAL"}, {"bufferView" : 7, "byteOffset" : 24, "componentType" : 5126, "count" : 18432, "type" : "VEC2", "max" : [1.0000003576278687, 1], "min" : [-4.2611081880750135E-05, -1.1920928955078125E-07], "name" : "TEXCOORD_0"}, {"bufferView" : 0, "byteOffset" : 528384, "componentType" : 5123, "count" : 21504, "type" : "SCALAR", "max" : [21503], "min" : [0]}, {"bufferView" : 8, "byteOffset" : 0, "componentType" : 5126, "count" : 21504, "type" : "VEC3", "max" : [0.3939144015312195, 0.2000955045223236, 1.4022060632705688], "min" : [-0.37618258595466614, -0.19987104833126068, 0.8291036486625671], "name" : "POSITION"}, {"bufferView" : 8, "byteOffset" : 12, "componentType" : 5126, "count" : 21504, "type" : "VEC3", "max" : [0.9999864101409912, 0.9999191761016846, 0.9994405508041382], "min" : [-0.999748706817627, -0.9996116161346436, -0.9995186924934387], "name" : "NORMAL"}, {"bufferView" : 8, "byteOffset" : 24, "componentType" : 5126, "count" : 21504, "type" : "VEC2", "max" : [0.8750001192092896, 1], "min" : [0.1250000149011612, -1.1920928955078125E-07], "name" : "TEXCOORD_0"}, {"bufferView" : 0, "byteOffset" : 571392, "componentType" : 5123, "count" : 48768, "type" : "SCALAR", "max" : [48767], "min" : [0]}, {"bufferView" : 9, "byteOffset" : 0, "componentType" : 5126, "count" : 48768, "type" : "VEC3", "max" : [0.7874460220336914, 0.7874457836151123, 0.9550173282623291], "min" : [-0.7874458432197571, -0.7874462008476257, -0.8771014213562012], "name" : "POSITION"}, {"bufferView" : 9, "byteOffset" : 12, "componentType" : 5126, "count" : 48768, "type" : "VEC3", "max" : [0.9991930723190308, 0.9991929531097412, 1.0000044107437134], "min" : [-0.9991930723190308, -0.999193012714386, -1.0000044107437134], "name" : "NORMAL"}, {"bufferView" : 9, "byteOffset" : 24, "componentType" : 5126, "count" : 48768, "type" : "VEC2", "max" : [1.0000003576278687, 1.0000219345092773], "min" : [1.9868217293605994E-08, -2.205371856689453E-05], "name" : "TEXCOORD_0"}, {"bufferView" : 0, "byteOffset" : 668928, "componentType" : 5123, "count" : 48768, "type" : "SCALAR", "max" : [48767], "min" : [0]}, {"bufferView" : 10, "byteOffset" : 0, "componentType" : 5126, "count" : 48768, "type" : "VEC3", "max" : [0.3461235463619232, 0.31363388895988464, 1.3293637037277222], "min" : [-0.22934219241142273, -0.2716064155101776, 0.8730154037475586], "name" : "POSITION"}, {"bufferView" : 10, "byteOffset" : 12, "componentType" : 5126, "count" : 48768, "type" : "VEC3", "max" : [0.9996799826622009, 0.9988404512405396, 0.9999982714653015], "min" : [-0.9998703002929688, -0.9988380670547485, -1.0000041723251343], "name" : "NORMAL"}, {"bufferView" : 10, "byteOffset" : 24, "componentType" : 5126, "count" : 48768, "type" : "VEC2", "max" : [1.0000003576278687, 1.0000219345092773], "min" : [1.9868217293605994E-08, -2.205371856689453E-05], "name" : "TEXCOORD_0"}, {"bufferView" : 0, "byteOffset" : 766464, "componentType" : 5123, "count" : 11520, "type" : "SCALAR", "max" : [11519], "min" : [0]}, {"bufferView" : 11, "byteOffset" : 0, "componentType" : 5126, "count" : 11520, "type" : "VEC3", "max" : [0.8310204744338989, 0.7754377722740173, 0.7358244061470032], "min" : [-0.831795871257782, -0.8359744548797607, -0.48057377338409424], "name" : "POSITION"}, {"bufferView" : 11, "byteOffset" : 12, "componentType" : 5126, "count" : 11520, "type" : "VEC3", "max" : [0.9990644454956055, 0.9995768666267395, 0.9999433755874634], "min" : [-0.9967325925827026, -0.9997040629386902, -0.9997278451919556], "name" : "NORMAL"}, {"bufferView" : 11, "byteOffset" : 24, "componentType" : 5126, "count" : 11520, "type" : "VEC2", "max" : [0.8750001192092896, 1], "min" : [0.1250000149011612, -1.1920928955078125E-07], "name" : "TEXCOORD_0"}, {"bufferView" : 0, "byteOffset" : 789504, "componentType" : 5125, "count" : 110592, "type" : "SCALAR", "max" : [110591], "min" : [0]}, {"bufferView" : 12, "byteOffset" : 0, "componentType" : 5126, "count" : 110592, "type" : "VEC3", "max" : [2.480022668838501, 1.1222137212753296, 1.7109590768814087], "min" : [-1.9954105615615845, -1.1264173984527588, -3.2293388843536377], "name" : "POSITION"}, {"bufferView" : 12, "byteOffset" : 12, "componentType" : 5126, "count" : 110592, "type" : "VEC3", "max" : [1.000002145767212, 0.9999284744262695, 0.9998734593391418], "min" : [-0.9998892545700073, -0.9999284744262695, -0.9998195171356201], "name" : "NORMAL"}, {"bufferView" : 12, "byteOffset" : 24, "componentType" : 5126, "count" : 110592, "type" : "VEC2", "max" : [0.8750001192092896, 1], "min" : [0.125, -1.1920928955078125E-07], "name" : "TEXCOORD_0"}, {"bufferView" : 0, "byteOffset" : 1231872, "componentType" : 5123, "count" : 2064, "type" : "SCALAR", "max" : [2063], "min" : [0]}, {"bufferView" : 13, "byteOffset" : 0, "componentType" : 5126, "count" : 2064, "type" : "VEC3", "max" : [0.5667833685874939, 0.11968610435724258, 0.3154906630516052], "min" : [-0.381101131439209, -0.03268355131149292, -0.02327396720647812], "name" : "POSITION"}, {"bufferView" : 13, "byteOffset" : 12, "componentType" : 5126, "count" : 2064, "type" : "VEC3", "max" : [0.9999718070030212, 0.9999844431877136, 0.9999062418937683], "min" : [-0.9883244037628174, -0.9999845623970032, -1.0000040531158447], "name" : "NORMAL"}], "asset" : {"generator" : "Aspose.3D 24.6.0", "version" : "2.0"}, "buffers" : [{"uri" : "buffer.bin", "byteLength" : 13917656}], "bufferViews" : [{"buffer" : 0, "byteOffset" : 0, "byteLength" : 1236000, "target" : 34963}, {"buffer" : 0, "byteOffset" : 1236004, "byteLength" : 344064, "byteStride" : 32, "target" : 34962}, {"buffer" : 0, "byteOffset" : 1580072, "byteLength" : 73728, "byteStride" : 32, "target" : 34962}, {"buffer" : 0, "byteOffset" : 1653804, "byteLength" : 3538944, "byteStride" : 32, "target" : 34962}, {"buffer" : 0, "byteOffset" : 5192752, "byteLength" : 129024, "byteStride" : 32, "target" : 34962}, {"buffer" : 0, "byteOffset" : 5321780, "byteLength" : 73728, "byteStride" : 32, "target" : 34962}, {"buffer" : 0, "byteOffset" : 5395512, "byteLength" : 165888, "byteStride" : 32, "target" : 34962}, {"buffer" : 0, "byteOffset" : 5561404, "byteLength" : 589824, "byteStride" : 32, "target" : 34962}, {"buffer" : 0, "byteOffset" : 6151232, "byteLength" : 688128, "byteStride" : 32, "target" : 34962}, {"buffer" : 0, "byteOffset" : 6839364, "byteLength" : 1560576, "byteStride" : 32, "target" : 34962}, {"buffer" : 0, "byteOffset" : 8399944, "byteLength" : 1560576, "byteStride" : 32, "target" : 34962}, {"buffer" : 0, "byteOffset" : 9960524, "byteLength" : 368640, "byteStride" : 32, "target" : 34962}, {"buffer" : 0, "byteOffset" : 10329168, "byteLength" : 3538944, "byteStride" : 32, "target" : 34962}, {"buffer" : 0, "byteOffset" : 13868116, "byteLength" : 49536, "byteStride" : 24, "target" : 34962}], "images" : [{"uri" : "C:\\blender"}, {"uri" : "C:\\blender"}], "materials" : [{"name" : "body_reptile", "pbrMetallicRoughness" : {"baseColorFactor" : [1, 1, 1, 1], "baseColorTexture" : {"index" : 0, "texCoord" : 0}, "metallicFactor" : 1, "roughnessFactor" : 1}, "emissiveFactor" : [0, 0, 0], "alphaMode" : "OPAQUE", "doubleSided" : false}, {"name" : "Material.001", "pbrMetallicRoughness" : {"baseColorFactor" : [0.5088813304901123, 0.8468736410140991, 0.0843762457370758, 1], "metallicFactor" : 1, "roughnessFactor" : 1}, "emissiveFactor" : [0, 0, 0], "alphaMode" : "OPAQUE", "doubleSided" : false}, {"name" : "Material.002", "pbrMetallicRoughness" : {"baseColorFactor" : [0.15456046164035797, 0.609486997127533, 0.014824029058218002, 1], "metallicFactor" : 1, "roughnessFactor" : 1}, "emissiveFactor" : [0, 0, 0], "alphaMode" : "OPAQUE", "doubleSided" : false}, {"name" : "Material.003", "pbrMetallicRoughness" : {"baseColorFactor" : [1, 1, 1, 1], "baseColorTexture" : {"index" : 1, "texCoord" : 0}, "metallicFactor" : 1, "roughnessFactor" : 1}, "emissiveFactor" : [0, 0, 0], "alphaMode" : "OPAQUE", "doubleSided" : false}, {"name" : "Material.022", "pbrMetallicRoughness" : {"baseColorFactor" : [0.2787237763404846, 0.609486997127533, 0.044556256383657455, 1], "metallicFactor" : 1, "roughnessFactor" : 1}, "emissiveFactor" : [0, 0, 0], "alphaMode" : "OPAQUE", "doubleSided" : false}, {"name" : "Material.008", "pbrMetallicRoughness" : {"baseColorFactor" : [0.8631575107574463, 0.20863671600818634, 0, 1], "metallicFactor" : 1, "roughnessFactor" : 1}, "emissiveFactor" : [0, 0, 0], "alphaMode" : "OPAQUE", "doubleSided" : false}, {"name" : "plant", "pbrMetallicRoughness" : {"baseColorFactor" : [0.22838881611824036, 0.5225164294242859, 0.06836870312690735, 1], "metallicFactor" : 1, "roughnessFactor" : 1}, "emissiveFactor" : [0, 0, 0], "alphaMode" : "OPAQUE", "doubleSided" : false}, {"name" : "Material.004", "pbrMetallicRoughness" : {"baseColorFactor" : [0.031142275780439377, 0.24955908954143524, 0.10958689451217651, 1], "metallicFactor" : 1, "roughnessFactor" : 1}, "emissiveFactor" : [0, 0, 0], "alphaMode" : "OPAQUE", "doubleSided" : false}, {"name" : "Material.006", "pbrMetallicRoughness" : {"baseColorFactor" : [0.9477314949035645, 0.09876617789268494, 0.1786000281572342, 1], "metallicFactor" : 1, "roughnessFactor" : 1}, "emissiveFactor" : [0, 0, 0], "alphaMode" : "OPAQUE", "doubleSided" : false}, {"name" : "Material.005", "pbrMetallicRoughness" : {"baseColorFactor" : [0.800000011920929, 0.800000011920929, 0.800000011920929, 1], "metallicFactor" : 1, "roughnessFactor" : 1}, "emissiveFactor" : [0, 0, 0], "alphaMode" : "OPAQUE", "doubleSided" : false}, {"name" : "Material.007", "pbrMetallicRoughness" : {"baseColorFactor" : [0.018134314566850662, 0.04569942131638527, 0.0036048085894435644, 1], "metallicFactor" : 1, "roughnessFactor" : 1}, "emissiveFactor" : [0, 0, 0], "alphaMode" : "OPAQUE", "doubleSided" : false}], "meshes" : [{"primitives" : [{"attributes" : {"POSITION" : 1, "NORMAL" : 2, "TEXCOORD_0" : 3}, "indices" : 0, "material" : 0, "mode" : 4}, {"attributes" : {"POSITION" : 5, "NORMAL" : 6, "TEXCOORD_0" : 7}, "indices" : 4, "material" : 1, "mode" : 4}], "name" : "Roundcube"}, {"primitives" : [{"attributes" : {"POSITION" : 9, "NORMAL" : 10, "TEXCOORD_0" : 11}, "indices" : 8, "material" : 2, "mode" : 4}], "name" : "Mesh"}, {"primitives" : [{"attributes" : {"POSITION" : 13, "NORMAL" : 14, "TEXCOORD_0" : 15}, "indices" : 12, "material" : 2, "mode" : 4}, {"attributes" : {"POSITION" : 17, "NORMAL" : 18, "TEXCOORD_0" : 19}, "indices" : 16, "material" : 3, "mode" : 4}, {"attributes" : {"POSITION" : 21, "NORMAL" : 22, "TEXCOORD_0" : 23}, "indices" : 20, "material" : 4, "mode" : 4}], "name" : "Roundcube.004"}, {"primitives" : [{"attributes" : {"POSITION" : 25, "NORMAL" : 26, "TEXCOORD_0" : 27}, "indices" : 24, "material" : 5, "mode" : 4}, {"attributes" : {"POSITION" : 29, "NORMAL" : 30, "TEXCOORD_0" : 31}, "indices" : 28, "material" : 6, "mode" : 4}], "name" : "Sphere.002"}, {"primitives" : [{"attributes" : {"POSITION" : 33, "NORMAL" : 34, "TEXCOORD_0" : 35}, "indices" : 32, "material" : 7, "mode" : 4}, {"attributes" : {"POSITION" : 37, "NORMAL" : 38, "TEXCOORD_0" : 39}, "indices" : 36, "material" : 8, "mode" : 4}, {"attributes" : {"POSITION" : 41, "NORMAL" : 42, "TEXCOORD_0" : 43}, "indices" : 40, "material" : 9, "mode" : 4}], "name" : "Sphere.004"}, {"primitives" : [{"attributes" : {"POSITION" : 45, "NORMAL" : 46, "TEXCOORD_0" : 47}, "indices" : 44, "material" : 2, "mode" : 4}], "name" : "Cube.027"}, {"primitives" : [{"attributes" : {"POSITION" : 49, "NORMAL" : 50}, "indices" : 48, "material" : 10, "mode" : 4}], "name" : "Vert.010"}], "nodes" : [{"matrix" : [128.1264190673828, 0, 0, 0, 0, -1.8173906712127672E-05, -111.55064392089695, 0, 0, 107.04199981689311, -1.743935535084234E-05, 0, 1.3319611549377441, 240.35980224609375, -203.09190368652344, 1], "mesh" : 0, "name" : "body"}, {"matrix" : [-6.306386294905876, -11.316660605962412, 1.6530495940717531, 0, -10.337049399776177, 4.8324617098317235, -6.3531654710797625, 0, 4.893349195245655, -4.376119252609062, -11.2904695169712, 0, -127.33242797851562, 290.7590026855469, -234.90109252929688, 1], "mesh" : 1, "name" : "plant_1"}, {"matrix" : [6.762402732319567, 0.989974108551432, -1.0646968734523878, 0, 1.4333444388253185, -3.692492630847951, 5.6705156175899525, 0, 0.2432121931406408, -5.764474841425004, -3.8151535373704846, 0, 164.8178253173828, 213.7459716796875, -203.6949920654297, 1], "mesh" : 2, "name" : "carrot"}, {"matrix" : [47.331931750653254, -32.30989767455469, 0, 0, -4.707214876897152E-06, -6.895768458728997E-06, -51.24715423583916, 0, 24.591353786715487, 36.024759063401405, -7.106251831948576E-06, 0, 71.40431213378906, 326.94403076171875, -217.7035369873047, 1], "mesh" : 3, "name" : "pumpkin"}, {"matrix" : [21.33549806694789, -0.8278653341463382, 33.61587418628409, 0, 32.749014603302, 11.112390883254825, -20.511647882499616, 0, -9.193929127233458, 39.66936599332656, 6.812196784952851, 0, -57.61370849609375, 338.6306457519531, -131.6386260986328, 1], "mesh" : 4, "name" : "cactus"}, {"matrix" : [6.141429378553325, -10.883497884308163, 3.7950207392910835, 0, -5.713194806316242, -6.609091483881369, -9.708208013639323, 0, 10.010603451075028, 2.9050443325839757, -7.868829272737704, 0, 55.426658630371094, 299.2527160644531, -134.3041229248047, 1], "mesh" : 5, "name" : "plant_2"}, {"matrix" : [106.39743775169411, 0, 32.48183839109671, 0, 29.504764528408803, 7.628998467454207E-06, -96.64574121365722, 0, -2.2044201067831217E-06, 99.99999999999972, 7.220793609832408E-06, 0, -76.9443130493164, 222.4133758544922, -106.9011001586914, 1], "mesh" : 6, "name" : "face"}], "samplers" : [{"magFilter" : 9729, "minFilter" : 9729, "wrapS" : 10497, "wrapT" : 10497}, {"magFilter" : 9729, "minFilter" : 9729, "wrapS" : 10497, "wrapT" : 10497}], "scene" : 0, "scenes" : [{"nodes" : [0, 1, 2, 3, 4, 5, 6]}], "textures" : [{"sampler" : 0, "source" : 0, "name" : "base_color_texture"}, {"sampler" : 1, "source" : 1, "name" : "base_color_texture"}]}